<svg version="1.1" id="Layer_1" xmlns="http://www.w3.org/2000/svg" xmlns:xlink="http://www.w3.org/1999/xlink" x="0px" y="0px"
	 width="100%" viewBox="0 0 246 246" enable-background="new 0 0 246 246" xml:space="preserve">
<path fill="#FFFFFF" opacity="1.000000" stroke="none" 
	d="
M139.000000,247.000000 
	C92.666672,247.000000 46.833340,247.000000 1.000006,247.000000 
	C1.000004,165.000015 1.000004,83.000015 1.000002,1.000017 
	C82.999992,1.000011 164.999985,1.000011 246.999969,1.000006 
	C246.999985,82.999985 246.999985,164.999969 247.000000,246.999969 
	C211.166672,247.000000 175.333328,247.000000 139.000000,247.000000 
M124.073120,224.548248 
	C124.381157,224.644913 124.689186,224.741562 125.414307,224.997925 
	C125.414307,224.997925 125.858597,225.043503 126.130280,225.630127 
	C126.743370,225.795654 127.356468,225.961166 128.386475,226.812088 
	C132.163971,227.302780 135.941467,227.793472 139.834198,228.299133 
	C139.834198,225.584534 139.834198,223.778702 139.980515,221.049347 
	C139.932007,204.032715 139.883499,187.016083 139.981461,169.075912 
	C139.932190,164.049911 139.882919,159.023911 139.978699,153.070770 
	C139.930511,140.380875 139.882309,127.690971 139.980347,114.102539 
	C139.986130,112.008965 139.646332,109.831123 140.128479,107.853706 
	C140.413376,106.685257 141.998688,105.833893 143.925888,104.989952 
	C161.890045,104.989952 179.854202,104.989952 197.836273,104.989952 
	C197.836273,102.280746 197.836273,100.146744 197.979538,97.082222 
	C197.979538,89.151718 197.979538,81.221207 197.979538,73.329193 
	C194.824539,73.329193 192.176147,73.329193 189.098785,73.329193 
	C198.336075,80.049301 198.744690,87.082901 190.079803,95.990700 
	C180.801819,99.643097 173.963638,96.657555 171.979218,87.227188 
	C171.931076,86.151161 171.882950,85.075142 171.980179,83.227203 
	C173.040390,80.504578 174.100601,77.781960 175.904037,75.017677 
	C176.509491,74.611542 177.114944,74.205399 178.651886,73.174400 
	C169.705261,73.174400 161.848679,73.174400 153.066315,73.033195 
	C147.045563,73.080978 141.024811,73.128761 134.193298,73.026222 
	C132.371353,73.265633 130.549423,73.505043 128.149002,73.659363 
	C119.103676,73.497925 110.058357,73.336487 100.086998,73.024071 
	C94.722511,73.072098 89.358032,73.120132 83.282616,72.737305 
	C82.529785,65.546738 81.201118,58.564777 75.842468,52.321896 
	C69.758499,44.644367 61.144333,42.368546 51.152500,41.024246 
	C50.435123,42.301704 49.094158,43.577511 49.090771,44.856861 
	C48.981102,86.272949 48.947941,127.689514 49.057281,169.105606 
	C49.073555,175.268982 51.211056,180.839371 56.007725,185.814301 
	C62.496758,194.470505 70.701393,200.288040 81.837799,202.168961 
	C81.837799,199.245758 81.837799,197.111237 81.985039,194.052567 
	C81.938568,175.375717 81.892097,156.698868 81.989838,137.159790 
	C82.033012,135.123840 82.076180,133.087875 82.842300,130.571289 
	C82.894814,124.817719 82.850418,119.060944 83.041153,113.311958 
	C83.134949,110.484978 83.664192,107.672440 84.924149,104.998138 
	C92.190758,104.998138 99.457367,104.998138 107.000061,104.998138 
	C107.000061,107.414879 107.000061,109.224731 107.000061,111.034584 
	C107.000046,137.692871 106.806664,164.353653 107.149887,191.007538 
	C107.225960,196.915588 108.455742,203.073639 110.508026,208.615234 
	C112.471703,213.917557 114.790794,219.684677 120.957848,222.039398 
	C120.957848,222.039398 120.909172,222.055496 121.150299,222.669342 
	C122.083946,223.143784 123.017593,223.618240 123.982117,224.019043 
	C123.982117,224.019043 123.905762,224.042450 124.073120,224.548248 
M57.290260,29.758232 
	C61.017544,31.388485 64.622826,33.704639 69.700912,31.969679 
	C76.626472,29.568810 80.990189,25.004753 80.935631,17.411724 
	C80.883087,10.098709 76.782005,5.508224 69.117149,3.019535 
	C64.204460,2.508810 59.594780,3.030301 55.304222,7.181976 
	C49.446106,15.286284 49.524601,21.611633 57.290260,29.758232 
M196.778046,228.676178 
	C197.518188,225.889160 198.839859,223.113556 198.894760,220.313110 
	C199.099365,209.877594 198.888153,199.433914 198.978806,188.115997 
	C198.929962,185.747131 198.881119,183.378265 198.979340,180.080307 
	C198.932449,158.719498 198.885544,137.358688 198.987335,115.141937 
	C198.987335,113.867989 198.987335,112.594048 198.987335,111.359917 
	C184.991394,110.324806 167.986923,124.943031 169.014664,143.928650 
	C169.064133,154.619598 169.113586,165.310547 169.019409,176.825928 
	C169.066422,178.216492 169.113434,179.607056 169.012955,181.925110 
	C169.061768,201.951309 169.110580,221.977493 169.018356,242.801361 
	C169.018356,243.750076 169.018356,244.698776 169.018356,245.674942 
	C171.710327,245.159729 174.009048,244.737595 176.300308,244.278168 
	C185.402039,242.453156 191.154800,236.266235 196.778046,228.676178 
z"/>
<path fill="#C0272C" opacity="1.000000" stroke="none" 
	d="
M120.933800,222.085449 
	C114.790794,219.684677 112.471703,213.917557 110.508026,208.615234 
	C108.455742,203.073639 107.225960,196.915588 107.149887,191.007538 
	C106.806664,164.353653 107.000046,137.692871 107.000061,111.034584 
	C107.000061,109.224731 107.000061,107.414879 107.000061,104.998138 
	C99.457367,104.998138 92.190758,104.998138 84.461517,104.522583 
	C84.003235,102.702644 84.007584,101.358253 84.388710,100.002975 
	C93.176056,95.657379 101.586632,91.322685 110.329620,86.992386 
	C111.105103,87.001114 111.548172,87.005440 112.192986,87.284164 
	C119.575500,91.516418 126.756271,95.474274 133.937042,99.432129 
	C133.737457,100.034401 133.537857,100.636681 133.338272,101.238953 
	C126.018494,101.238953 118.698715,101.238953 110.214348,101.238953 
	C116.570580,112.568901 122.301384,122.784042 128.023849,133.374405 
	C128.012009,134.500153 128.008499,135.250687 127.728088,136.196121 
	C122.473686,145.936066 117.403259,155.434998 112.622330,165.077484 
	C111.932327,166.469116 112.061798,168.842209 112.786682,170.264343 
	C116.693489,177.929031 120.907913,185.436920 125.013306,193.373001 
	C125.012749,194.494888 125.015091,195.242706 124.863968,196.297028 
	C123.378563,198.691132 122.011505,200.757263 120.721420,202.870392 
	C117.113922,208.779404 113.276199,214.699432 120.707413,220.650452 
	C120.986778,220.874161 120.867371,221.595825 120.933800,222.085449 
z"/>
<path fill="#AB272D" opacity="1.000000" stroke="none" 
	d="
M128.032196,132.999176 
	C122.301384,122.784042 116.570580,112.568901 110.214348,101.238953 
	C118.698715,101.238953 126.018494,101.238953 133.338272,101.238953 
	C133.537857,100.636681 133.737457,100.034401 133.937042,99.432129 
	C126.756271,95.474274 119.575500,91.516418 112.507233,87.144363 
	C117.566605,83.900635 122.502914,81.052414 127.465538,78.250809 
	C129.433411,77.139862 130.838058,75.957214 128.727478,73.744453 
	C130.549423,73.505043 132.371353,73.265633 134.706207,73.483185 
	C141.273163,74.124184 147.326965,74.320679 153.382339,74.436073 
	C153.577515,74.439796 153.788483,73.613678 153.992096,73.174400 
	C161.848679,73.174400 169.705261,73.174400 178.651886,73.174400 
	C177.114944,74.205399 176.509491,74.611542 175.055298,75.020363 
	C169.264725,75.023048 164.322906,75.023048 159.381073,75.023048 
	C159.286804,75.646706 159.192535,76.270363 159.098267,76.894020 
	C163.343781,79.262383 167.589294,81.630753 171.834808,83.999115 
	C171.882950,85.075142 171.931076,86.151161 171.598450,87.782516 
	C163.144638,92.065269 155.083374,95.818619 146.991150,99.503937 
	C144.634705,100.577095 142.378723,101.598007 142.999207,104.839935 
	C141.998688,105.833893 140.413376,106.685257 140.128479,107.853706 
	C139.646332,109.831123 139.986130,112.008965 139.574326,114.614838 
	C136.580704,119.811661 134.067169,124.539589 131.361664,129.154984 
	C130.518799,130.592865 129.156631,131.726349 128.032196,132.999176 
z"/>
<path fill="#C0272C" opacity="1.000000" stroke="none" 
	d="
M55.961281,185.122055 
	C51.211056,180.839371 49.073555,175.268982 49.057281,169.105606 
	C48.947941,127.689514 48.981102,86.272949 49.090771,44.856861 
	C49.094158,43.577511 50.435123,42.301704 51.738792,41.391830 
	C57.551838,49.172817 62.778591,56.586224 68.005898,64.332947 
	C68.006363,65.110680 68.006279,65.555107 67.731918,66.191185 
	C62.665695,74.055939 57.794460,81.681862 53.169827,89.454514 
	C52.499104,90.581802 52.366291,92.902588 53.078655,93.836929 
	C57.541561,99.690468 62.314808,105.307396 66.986450,111.334305 
	C66.984329,112.108093 66.981117,112.550201 66.674637,113.145401 
	C61.827606,120.149048 57.217503,126.957703 52.830887,133.907425 
	C52.328384,134.703552 52.776531,136.434311 53.289970,137.484238 
	C57.465298,146.022430 61.761257,154.501617 66.017166,163.372864 
	C66.015289,164.494720 66.016731,165.242523 65.863846,166.296524 
	C62.460114,172.775848 59.210697,178.948959 55.961281,185.122055 
z"/>
<path fill="#AB272D" opacity="1.000000" stroke="none" 
	d="
M125.016205,192.998917 
	C120.907913,185.436920 116.693489,177.929031 112.786682,170.264343 
	C112.061798,168.842209 111.932327,166.469116 112.622330,165.077484 
	C117.403259,155.434998 122.473686,145.936066 128.039825,136.358170 
	C130.229736,139.505676 131.603455,142.829941 133.497330,145.825302 
	C135.331039,148.725525 137.699860,151.287415 139.833649,153.997910 
	C139.882919,159.023911 139.932190,164.049911 139.572723,169.606537 
	C137.023636,173.936859 135.005524,177.812332 132.709457,181.515488 
	C130.283035,185.428848 127.591774,189.178024 125.016205,192.998917 
z"/>
<path fill="#A42529" opacity="1.000000" stroke="none" 
	d="
M169.160446,180.997620 
	C169.113434,179.607056 169.066422,178.216492 169.428223,176.348206 
	C170.858795,174.217804 171.980850,172.617859 172.883026,170.902267 
	C175.306168,166.294220 177.635284,161.636719 180.303345,157.149933 
	C183.174667,160.720764 185.711655,164.165756 188.322205,167.554092 
	C191.795578,172.062302 195.326233,176.526367 198.832275,181.009399 
	C198.881119,183.378265 198.929962,185.747131 198.567383,188.624481 
	C197.416275,190.340164 196.630615,191.521881 195.944794,192.758942 
	C192.948257,198.163940 189.980698,203.584991 186.646667,208.960846 
	C183.143799,203.836700 179.982819,198.760574 176.854324,193.664505 
	C174.269760,189.454453 171.723602,185.220810 169.160446,180.997620 
z"/>
<path fill="#AB272D" opacity="1.000000" stroke="none" 
	d="
M66.020493,162.998779 
	C61.761257,154.501617 57.465298,146.022430 53.289970,137.484238 
	C52.776531,136.434311 52.328384,134.703552 52.830887,133.907425 
	C57.217503,126.957703 61.827606,120.149048 66.952667,113.334991 
	C72.395767,119.264961 77.257561,125.158440 82.119354,131.051926 
	C82.076180,133.087875 82.033012,135.123840 81.630707,137.760529 
	C79.457466,141.600830 77.770508,144.920120 75.800247,148.061737 
	C72.638924,153.102585 69.290085,158.025833 66.020493,162.998779 
z"/>
<path fill="#B62226" opacity="1.000000" stroke="none" 
	d="
M198.905807,180.544861 
	C195.326233,176.526367 191.795578,172.062302 188.322205,167.554092 
	C185.711655,164.165756 183.174667,160.720764 180.301361,156.775177 
	C179.991470,155.499786 179.985153,154.750214 180.253036,153.784149 
	C186.083817,141.364288 191.629242,129.155792 197.239014,116.976936 
	C197.456345,116.505089 198.291428,116.317780 198.838638,115.997879 
	C198.885544,137.358688 198.932449,158.719498 198.905807,180.544861 
z"/>
<path fill="#9E272D" opacity="1.000000" stroke="none" 
	d="
M82.480827,130.811615 
	C77.257561,125.158440 72.395767,119.264961 67.255943,113.181885 
	C66.981117,112.550201 66.984329,112.108093 67.262100,111.142212 
	C70.884422,105.322823 73.663834,99.533775 77.724243,94.856865 
	C82.767159,89.048279 83.359451,84.291618 77.882317,78.565819 
	C74.217010,74.734108 71.272980,70.212448 68.006195,65.999527 
	C68.006279,65.555107 68.006363,65.110680 68.307922,64.180222 
	C71.110390,60.111126 73.611374,56.528061 76.112366,52.945000 
	C81.201118,58.564777 82.529785,65.546738 83.639572,73.410446 
	C84.001671,82.727013 84.006805,91.370445 84.011932,100.013870 
	C84.007584,101.358253 84.003235,102.702644 83.997635,104.450195 
	C83.664192,107.672440 83.134949,110.484978 83.041153,113.311958 
	C82.850418,119.060944 82.894814,124.817719 82.480827,130.811615 
z"/>
<path fill="#AB272D" opacity="1.000000" stroke="none" 
	d="
M198.912994,115.569908 
	C198.291428,116.317780 197.456345,116.505089 197.239014,116.976936 
	C191.629242,129.155792 186.083817,141.364288 179.907593,153.747162 
	C178.277878,152.898041 177.238205,151.896561 176.263580,150.835358 
	C173.878647,148.238525 171.523727,145.614136 169.156738,143.000824 
	C167.986923,124.943031 184.991394,110.324806 198.987335,111.359917 
	C198.987335,112.594048 198.987335,113.867989 198.912994,115.569908 
z"/>
<path fill="#9E272D" opacity="1.000000" stroke="none" 
	d="
M169.086700,181.461365 
	C171.723602,185.220810 174.269760,189.454453 176.854324,193.664505 
	C179.982819,198.760574 183.143799,203.836700 186.613678,209.305695 
	C186.629501,210.792023 186.322388,211.894119 185.744080,213.209290 
	C181.091187,222.053192 176.762054,230.711609 172.264664,239.281708 
	C171.667816,240.419022 170.215530,241.107407 169.159409,242.003693 
	C169.110580,221.977493 169.061768,201.951309 169.086700,181.461365 
z"/>
<path fill="#C0272C" opacity="1.000000" stroke="none" 
	d="
M143.462555,104.914948 
	C142.378723,101.598007 144.634705,100.577095 146.991150,99.503937 
	C155.083374,95.818619 163.144638,92.065269 171.525482,88.181076 
	C173.963638,96.657555 180.801819,99.643097 190.833954,96.013947 
	C193.670822,96.695709 195.753555,97.354225 197.836273,98.012741 
	C197.836273,100.146744 197.836273,102.280746 197.836273,104.989952 
	C179.854202,104.989952 161.890045,104.989952 143.462555,104.914948 
z"/>
<path fill="#AB272D" opacity="1.000000" stroke="none" 
	d="
M55.984505,185.468170 
	C59.210697,178.948959 62.460114,172.775848 66.211105,166.357697 
	C67.179611,166.736710 67.748138,167.308777 68.098091,167.992691 
	C72.695984,176.978165 77.263016,185.979416 81.837799,194.976715 
	C81.837799,197.111237 81.837799,199.245758 81.837799,202.168961 
	C70.701393,200.288040 62.496758,194.470505 55.984505,185.468170 
z"/>
<path fill="#9E272D" opacity="1.000000" stroke="none" 
	d="
M81.911423,194.514648 
	C77.263016,185.979416 72.695984,176.978165 68.098091,167.992691 
	C67.748138,167.308777 67.179611,166.736710 66.365425,166.051483 
	C66.016731,165.242523 66.015289,164.494720 66.017166,163.372864 
	C69.290085,158.025833 72.638924,153.102585 75.800247,148.061737 
	C77.770508,144.920120 79.457466,141.600830 81.558609,138.191650 
	C81.892097,156.698868 81.938568,175.375717 81.911423,194.514648 
z"/>
<path fill="#AB272D" opacity="1.000000" stroke="none" 
	d="
M120.945824,222.062424 
	C120.867371,221.595825 120.986778,220.874161 120.707413,220.650452 
	C113.276199,214.699432 117.113922,208.779404 120.721420,202.870392 
	C122.011505,200.757263 123.378563,198.691132 125.207443,196.353043 
	C126.715782,197.553619 127.891891,198.917847 128.710327,200.470612 
	C132.472900,207.609238 136.135651,214.800491 139.834198,221.972870 
	C139.834198,223.778702 139.834198,225.584534 139.834198,228.299133 
	C135.941467,227.793472 132.163971,227.302780 128.019119,226.191010 
	C127.054039,225.394470 126.456322,225.218994 125.858597,225.043503 
	C125.858597,225.043503 125.414307,224.997925 125.074448,224.723694 
	C124.506554,224.215561 124.230278,224.079895 123.905762,224.042450 
	C123.905762,224.042450 123.982117,224.019043 123.931824,223.696289 
	C122.890747,222.934174 121.899963,222.494827 120.909180,222.055481 
	C120.909172,222.055496 120.957848,222.039398 120.945824,222.062424 
z"/>
<path fill="#AB272D" opacity="1.000000" stroke="none" 
	d="
M84.388718,100.002975 
	C84.006805,91.370445 84.001671,82.727013 83.995041,73.625877 
	C89.358032,73.120132 94.722511,73.072098 100.444099,73.474098 
	C97.689941,74.532837 94.578682,75.141548 90.985214,75.844604 
	C97.715927,79.789635 103.856567,83.388817 109.997208,86.987991 
	C101.586632,91.322685 93.176056,95.657379 84.388718,100.002975 
z"/>
<path fill="#A42529" opacity="1.000000" stroke="none" 
	d="
M169.088882,242.402527 
	C170.215530,241.107407 171.667816,240.419022 172.264664,239.281708 
	C176.762054,230.711609 181.091187,222.053192 186.087769,213.263000 
	C187.710190,214.547241 188.831299,215.925797 189.703003,217.447205 
	C191.898056,221.278275 193.980621,225.173798 196.108261,229.043488 
	C191.154800,236.266235 185.402039,242.453156 176.300308,244.278168 
	C174.009048,244.737595 171.710327,245.159729 169.018356,245.674942 
	C169.018356,244.698776 169.018356,243.750076 169.088882,242.402527 
z"/>
<path fill="#9E272D" opacity="1.000000" stroke="none" 
	d="
M139.907349,221.511108 
	C136.135651,214.800491 132.472900,207.609238 128.710327,200.470612 
	C127.891891,198.917847 126.715782,197.553619 125.360916,196.046539 
	C125.015091,195.242706 125.012749,194.494888 125.013306,193.373001 
	C127.591774,189.178024 130.283035,185.428848 132.709457,181.515488 
	C135.005524,177.812332 137.023636,173.936859 139.499512,170.068298 
	C139.883499,187.016083 139.932007,204.032715 139.907349,221.511108 
z"/>
<path fill="#C0272C" opacity="1.000000" stroke="none" 
	d="
M69.999260,3.165967 
	C76.782005,5.508224 80.883087,10.098709 80.935631,17.411724 
	C80.990189,25.004753 76.626472,29.568810 69.185448,31.599644 
	C66.455841,27.484531 64.241707,23.739452 62.025757,19.662849 
	C62.025562,18.889296 62.027184,18.447266 62.331421,17.845718 
	C65.089104,12.846123 67.544182,8.006044 69.999260,3.165967 
z"/>
<path fill="#B62226" opacity="1.000000" stroke="none" 
	d="
M196.443146,228.859833 
	C193.980621,225.173798 191.898056,221.278275 189.703003,217.447205 
	C188.831299,215.925797 187.710190,214.547241 186.358948,213.049942 
	C186.322388,211.894119 186.629501,210.792023 186.969635,209.345062 
	C189.980698,203.584991 192.948257,198.163940 195.944794,192.758942 
	C196.630615,191.521881 197.416275,190.340164 198.494492,189.063141 
	C198.888153,199.433914 199.099365,209.877594 198.894760,220.313110 
	C198.839859,223.113556 197.518188,225.889160 196.443146,228.859833 
z"/>
<path fill="#9E272D" opacity="1.000000" stroke="none" 
	d="
M110.329620,86.992386 
	C103.856567,83.388817 97.715927,79.789635 90.985214,75.844604 
	C94.578682,75.141548 97.689941,74.532837 100.907120,73.549583 
	C110.058357,73.336487 119.103676,73.497925 128.438232,73.701904 
	C130.838058,75.957214 129.433411,77.139862 127.465538,78.250809 
	C122.502914,81.052414 117.566605,83.900635 112.305496,86.869972 
	C111.548172,87.005440 111.105103,87.001114 110.329620,86.992386 
z"/>
<path fill="#9E272D" opacity="1.000000" stroke="none" 
	d="
M139.906174,153.534332 
	C137.699860,151.287415 135.331039,148.725525 133.497330,145.825302 
	C131.603455,142.829941 130.229736,139.505676 128.316742,136.163254 
	C128.008499,135.250687 128.012009,134.500153 128.023849,133.374405 
	C129.156631,131.726349 130.518799,130.592865 131.361664,129.154984 
	C134.067169,124.539589 136.580704,119.811661 139.501221,115.064110 
	C139.882309,127.690971 139.930511,140.380875 139.906174,153.534332 
z"/>
<path fill="#AB272D" opacity="1.000000" stroke="none" 
	d="
M75.977417,52.633446 
	C73.611374,56.528061 71.110390,60.111126 68.307373,63.846909 
	C62.778591,56.586224 57.551838,49.172817 52.176117,41.463005 
	C61.144333,42.368546 69.758499,44.644367 75.977417,52.633446 
z"/>
<path fill="#9E272D" opacity="1.000000" stroke="none" 
	d="
M169.085693,143.464737 
	C171.523727,145.614136 173.878647,148.238525 176.263580,150.835358 
	C177.238205,151.896561 178.277878,152.898041 179.633392,153.963654 
	C179.985153,154.750214 179.991470,155.499786 179.999771,156.624115 
	C177.635284,161.636719 175.306168,166.294220 172.883026,170.902267 
	C171.980850,172.617859 170.858795,174.217804 169.500031,175.935989 
	C169.113586,165.310547 169.064133,154.619598 169.085693,143.464737 
z"/>
<path fill="#9E272D" opacity="1.000000" stroke="none" 
	d="
M62.028809,18.005234 
	C62.027184,18.447266 62.025562,18.889296 61.751480,19.876081 
	C59.971718,23.318308 58.464409,26.215782 56.957104,29.113255 
	C49.524601,21.611633 49.446106,15.286284 55.675804,7.392590 
	C58.041195,11.070546 60.035004,14.537890 62.028809,18.005234 
z"/>
<path fill="#AB272D" opacity="1.000000" stroke="none" 
	d="
M62.331421,17.845718 
	C60.035004,14.537890 58.041195,11.070546 56.004906,7.242160 
	C59.594780,3.030301 64.204460,2.508810 69.558205,3.092751 
	C67.544182,8.006044 65.089104,12.846123 62.331421,17.845718 
z"/>
<path fill="#AB272D" opacity="1.000000" stroke="none" 
	d="
M197.907898,97.547485 
	C195.753555,97.354225 193.670822,96.695709 191.217621,95.986885 
	C198.744690,87.082901 198.336075,80.049301 189.098785,73.329193 
	C192.176147,73.329193 194.824539,73.329193 197.979538,73.329193 
	C197.979538,81.221207 197.979538,89.151718 197.907898,97.547485 
z"/>
<path fill="#9E272D" opacity="1.000000" stroke="none" 
	d="
M171.907501,83.613159 
	C167.589294,81.630753 163.343781,79.262383 159.098267,76.894020 
	C159.192535,76.270363 159.286804,75.646706 159.381073,75.023048 
	C164.322906,75.023048 169.264725,75.023048 174.683685,75.041199 
	C174.100601,77.781960 173.040390,80.504578 171.907501,83.613159 
z"/>
<path fill="#AB272D" opacity="1.000000" stroke="none" 
	d="
M57.123680,29.435743 
	C58.464409,26.215782 59.971718,23.318308 61.753296,20.207603 
	C64.241707,23.739452 66.455841,27.484531 68.821213,31.532923 
	C64.622826,33.704639 61.017544,31.388485 57.123680,29.435743 
z"/>
<path fill="#B62226" opacity="1.000000" stroke="none" 
	d="
M153.529205,73.103798 
	C153.788483,73.613678 153.577515,74.439796 153.382339,74.436073 
	C147.326965,74.320679 141.273163,74.124184 135.111572,73.558350 
	C141.024811,73.128761 147.045563,73.080978 153.529205,73.103798 
z"/>
<path fill="#C0272C" opacity="1.000000" stroke="none" 
	d="
M121.029739,222.362411 
	C121.899963,222.494827 122.890747,222.934174 123.916382,223.733109 
	C123.017593,223.618240 122.083946,223.143784 121.029739,222.362411 
z"/>
<path fill="#C0272C" opacity="1.000000" stroke="none" 
	d="
M125.994438,225.336823 
	C126.456322,225.218994 127.054039,225.394470 127.810661,225.848328 
	C127.356468,225.961166 126.743370,225.795654 125.994438,225.336823 
z"/>
<path fill="#C0272C" opacity="1.000000" stroke="none" 
	d="
M123.989441,224.295349 
	C124.230278,224.079895 124.506554,224.215561 124.865906,224.643829 
	C124.689186,224.741562 124.381157,224.644913 123.989441,224.295349 
z"/>
<path fill="#AB272D" opacity="1.000000" stroke="none" 
	d="
M67.731918,66.191185 
	C71.272980,70.212448 74.217010,74.734108 77.882317,78.565819 
	C83.359451,84.291618 82.767159,89.048279 77.724243,94.856865 
	C73.663834,99.533775 70.884422,105.322823 67.261002,110.810532 
	C62.314808,105.307396 57.541561,99.690468 53.078655,93.836929 
	C52.366291,92.902588 52.499104,90.581802 53.169827,89.454514 
	C57.794460,81.681862 62.665695,74.055939 67.731918,66.191185 
z"/>
</svg>