<svg version="1.1" id="Layer_1" xmlns="http://www.w3.org/2000/svg" xmlns:xlink="http://www.w3.org/1999/xlink" x="0px" y="0px"
	 width="100%" viewBox="0 0 400 400" enable-background="new 0 0 400 400" xml:space="preserve">
<path fill="#FFEDA3" opacity="1.000000" stroke="none" 
	d="
M186.000000,401.000000 
	C124.019218,401.000000 62.538429,401.000000 1.028823,401.000000 
	C1.028823,267.727539 1.028823,134.455093 1.028823,1.091313 
	C134.230743,1.091313 267.461548,1.091313 400.846191,1.091313 
	C400.846191,134.333191 400.846191,267.666565 400.846191,401.000000 
	C329.455170,401.000000 257.977570,401.000000 186.000000,401.000000 
M219.822113,161.851852 
	C219.215408,161.240616 218.613602,160.101959 218.001251,160.096298 
	C206.553421,159.989944 195.104340,160.018158 183.160889,160.018158 
	C183.160889,170.419998 183.150543,180.368286 183.163315,190.316559 
	C183.182693,205.419312 181.207916,220.173584 175.490402,234.271133 
	C167.547714,253.855255 152.977783,267.739838 136.245499,279.726318 
	C131.282806,283.281433 126.165810,286.621155 121.006157,290.136810 
	C127.642548,300.096344 134.067810,309.739044 140.729660,319.736786 
	C167.062668,303.209229 188.755508,283.039673 201.497681,254.151230 
	C214.333603,283.070892 236.071823,303.233185 262.322266,319.765808 
	C269.094177,309.593689 275.578735,299.853180 282.015228,290.184875 
	C275.025085,285.302826 268.378235,280.878601 261.963165,276.140503 
	C240.053299,259.958160 224.651489,239.309814 221.610046,211.654755 
	C219.833252,195.498856 220.352112,179.090469 219.822113,161.851852 
M198.004654,83.341690 
	C197.354095,83.482025 196.705582,83.632759 196.052673,83.761162 
	C184.172119,86.097626 176.049683,94.772186 174.472916,106.811523 
	C172.966705,118.311974 178.812531,129.758530 188.756119,134.779114 
	C199.020798,139.961823 212.736679,137.875076 220.691086,129.920517 
	C228.770401,121.841034 231.003006,109.740219 226.391724,99.022705 
	C221.887787,88.554665 212.048523,82.912117 198.004654,83.341690 
z"/>
<path fill="#2C2C41" opacity="1.000000" stroke="none" 
	d="
M219.830139,162.323761 
	C220.352112,179.090469 219.833252,195.498856 221.610046,211.654755 
	C224.651489,239.309814 240.053299,259.958160 261.963165,276.140503 
	C268.378235,280.878601 275.025085,285.302826 282.015228,290.184875 
	C275.578735,299.853180 269.094177,309.593689 262.322266,319.765808 
	C236.071823,303.233185 214.333603,283.070892 201.497681,254.151230 
	C188.755508,283.039673 167.062668,303.209229 140.729660,319.736786 
	C134.067810,309.739044 127.642548,300.096344 121.006157,290.136810 
	C126.165810,286.621155 131.282806,283.281433 136.245499,279.726318 
	C152.977783,267.739838 167.547714,253.855255 175.490402,234.271133 
	C181.207916,220.173584 183.182693,205.419312 183.163315,190.316559 
	C183.150543,180.368286 183.160889,170.419998 183.160889,160.018158 
	C195.104340,160.018158 206.553421,159.989944 218.001251,160.096298 
	C218.613602,160.101959 219.215408,161.240616 219.830139,162.323761 
z"/>
<path fill="#2C2C41" opacity="1.000000" stroke="none" 
	d="
M198.438995,83.291672 
	C212.048523,82.912117 221.887787,88.554665 226.391724,99.022705 
	C231.003006,109.740219 228.770401,121.841034 220.691086,129.920517 
	C212.736679,137.875076 199.020798,139.961823 188.756119,134.779114 
	C178.812531,129.758530 172.966705,118.311974 174.472916,106.811523 
	C176.049683,94.772186 184.172119,86.097626 196.052673,83.761162 
	C196.705582,83.632759 197.354095,83.482025 198.438995,83.291672 
z"/>
</svg>