<svg version="1.1" id="Layer_1" xmlns="http://www.w3.org/2000/svg" xmlns:xlink="http://www.w3.org/1999/xlink" x="0px" y="0px"
	 width="100%" viewBox="0 0 81 80" enable-background="new 0 0 81 80" xml:space="preserve">
<path fill="#FFFEFD" opacity="1.000000" stroke="none" 
	d="
M66.000000,1.000000 
	C71.320930,1.000000 76.641861,1.000000 81.981400,1.000000 
	C81.981400,27.592247 81.981400,54.184509 81.981400,80.888382 
	C55.000298,80.888382 28.000223,80.888382 1.000000,80.888382 
	C1.000000,76.256935 1.000000,71.601135 1.324264,66.562256 
	C5.758555,70.527100 9.868583,74.875023 13.983659,79.228294 
	C17.058123,76.845558 19.535410,74.925636 22.331959,72.954582 
	C23.768234,72.266403 24.885248,71.629349 26.368025,70.986198 
	C28.345459,70.446541 29.957130,69.912979 31.880507,69.382042 
	C32.796871,69.228951 33.401535,69.073235 34.410000,68.958656 
	C35.878212,68.860062 36.942623,68.720329 38.403137,68.649796 
	C39.868824,68.709961 40.938404,68.700928 42.372284,68.798386 
	C43.491993,68.914139 44.247414,68.923416 45.338833,69.059723 
	C46.378674,69.320793 47.082512,69.454842 48.049908,69.732300 
	C49.102772,69.977028 49.892075,70.078346 50.921074,70.436096 
	C53.102531,71.474648 55.044296,72.256767 57.183548,73.315048 
	C59.770802,75.247520 62.160576,76.903824 64.299591,78.386345 
	C68.858704,73.949188 73.215065,69.709366 78.287766,64.772369 
	C73.365715,61.645397 68.729279,58.699883 63.875046,55.489037 
	C61.453377,54.427864 59.249504,53.632019 56.820778,52.583515 
	C55.066711,51.957237 53.537498,51.583626 51.662903,51.081688 
	C49.880352,50.707951 48.443188,50.462543 46.717319,50.119957 
	C45.727985,49.728661 45.027351,49.434540 44.609001,48.974358 
	C45.827877,47.664341 46.764469,46.520386 48.006790,45.270111 
	C49.519409,43.905830 50.726303,42.647861 52.163132,41.273537 
	C52.954250,40.507805 53.515427,39.858425 54.367413,39.071190 
	C55.794735,37.685287 56.931252,36.437241 58.366364,35.050034 
	C60.137299,33.331921 61.609638,31.752968 63.387714,30.025368 
	C65.676323,27.690813 67.659187,25.504902 69.956451,23.242474 
	C73.204666,20.384731 76.138489,17.603506 79.005432,14.885682 
	C74.326057,9.889590 70.163025,5.444795 66.000000,1.000000 
z"/>
<path fill="#FFFDFC" opacity="1.000000" stroke="none" 
	d="
M1.000000,65.000000 
	C1.000000,43.790054 1.000000,22.580109 1.000000,1.000000 
	C5.343583,1.000000 9.697663,1.000000 14.472834,1.335446 
	C10.714926,5.960361 6.535927,10.249829 1.883494,15.025249 
	C5.293088,17.542564 8.155549,19.655930 11.280291,21.993155 
	C13.362350,23.139462 15.182129,24.061911 17.241806,25.199150 
	C18.657888,25.883219 19.834070,26.352493 21.319252,27.029423 
	C23.032385,27.642349 24.436514,28.047619 26.122408,28.638332 
	C27.937798,29.136692 29.471426,29.449608 31.387115,29.866686 
	C32.822948,30.013746 33.876717,30.056644 34.944592,30.412945 
	C34.566681,31.450752 34.174667,32.175159 33.534500,32.992481 
	C32.725632,33.741367 32.164917,34.397339 31.330917,35.201443 
	C30.678701,35.829037 30.299763,36.308498 29.641983,36.905296 
	C28.450520,38.024311 27.537899,39.025997 26.320152,40.204830 
	C24.276468,42.227535 22.537914,44.073093 20.498291,46.051743 
	C16.440977,50.109711 12.684734,54.034584 8.957017,57.977875 
	C8.985544,57.996288 8.985785,57.928379 8.695911,57.963284 
	C8.194630,58.312454 7.983222,58.626724 7.472633,59.065506 
	C5.115634,61.126682 3.057817,63.063343 1.000000,65.000000 
z"/>
<path fill="#FFFDFC" opacity="1.000000" stroke="none" 
	d="
M16.000000,1.000000 
	C32.020893,1.000000 48.041790,1.000000 64.348221,1.261340 
	C63.059227,2.928977 61.484703,4.335273 59.614632,5.816053 
	C58.859509,6.253115 58.399929,6.615692 57.971329,6.983740 
	C58.002304,6.989212 57.971046,6.934611 57.605278,6.975153 
	C53.825874,8.359672 50.412247,9.703648 46.599442,10.994802 
	C45.135838,11.040862 44.071411,11.139746 42.606628,11.201504 
	C41.138866,11.242243 40.071468,11.320106 38.642815,11.278286 
	C37.524483,11.165431 36.767406,11.172259 35.640717,11.083012 
	C34.516052,11.030272 33.761002,11.073607 32.679527,11.063169 
	C31.569218,10.680903 30.785330,10.352412 29.738590,9.831972 
	C28.651546,9.424127 27.827353,9.208229 26.807920,8.766321 
	C25.871809,8.278561 25.130936,8.016809 24.177919,7.491892 
	C22.062975,6.100557 20.160175,4.972389 18.113430,3.569338 
	C17.312988,2.529637 16.656494,1.764819 16.000000,1.000000 
z"/>
<path fill="#FABB28" opacity="1.000000" stroke="none" 
	d="
M59.910179,5.741569 
	C61.484703,4.335273 63.059227,2.928977 64.816879,1.261340 
	C65.000000,1.000000 65.500000,1.000000 65.750000,1.000000 
	C70.163025,5.444795 74.326057,9.889590 79.005432,14.885682 
	C76.138489,17.603506 73.204666,20.384731 69.598999,23.073135 
	C67.643158,21.701891 66.405342,20.372648 65.065804,19.155350 
	C62.032345,16.398729 58.948738,13.697301 56.052010,10.677538 
	C56.802677,9.232636 57.386864,8.083624 57.971046,6.934611 
	C57.971046,6.934611 58.002304,6.989212 58.298943,6.992040 
	C59.033779,6.577101 59.471977,6.159334 59.910179,5.741569 
z"/>
<path fill="#FABC27" opacity="1.000000" stroke="none" 
	d="
M1.000000,65.250000 
	C3.057817,63.063343 5.115634,61.126682 7.757884,59.006081 
	C8.556806,58.524216 8.771297,58.226299 8.985786,57.928379 
	C8.985785,57.928379 8.985544,57.996288 9.306957,58.007912 
	C10.728867,57.667797 11.829364,57.316059 13.244667,57.122879 
	C14.818563,59.725643 16.042067,62.189030 17.346046,64.609047 
	C18.864840,67.427742 20.454046,70.208496 22.012695,73.005714 
	C19.535410,74.925636 17.058123,76.845558 13.983659,79.228294 
	C9.868583,74.875023 5.758555,70.527100 1.324264,66.089584 
	C1.000000,66.000000 1.000000,65.500000 1.000000,65.250000 
z"/>
<path fill="#FAB82B" opacity="1.000000" stroke="none" 
	d="
M15.750000,1.000000 
	C16.656494,1.764819 17.312988,2.529637 17.800354,3.774562 
	C15.426822,10.092876 13.222416,15.931086 11.018011,21.769295 
	C8.155549,19.655930 5.293088,17.542564 1.883494,15.025249 
	C6.535927,10.249829 10.714926,5.960361 14.946962,1.335446 
	C15.000000,1.000000 15.500000,1.000000 15.750000,1.000000 
z"/>
<path fill="#FE4D0C" opacity="1.000000" stroke="none" 
	d="
M64.092842,55.754368 
	C68.729279,58.699883 73.365715,61.645397 78.287766,64.772369 
	C73.215065,69.709366 68.858704,73.949188 64.299591,78.386345 
	C62.160576,76.903824 59.770802,75.247520 57.224770,72.945633 
	C59.409950,66.784821 61.751396,61.269596 64.092842,55.754368 
z"/>
<path fill="#FAB423" opacity="1.000000" stroke="none" 
	d="
M55.885525,10.973427 
	C58.948738,13.697301 62.032345,16.398729 65.065804,19.155350 
	C66.405342,20.372648 67.643158,21.701891 69.284607,23.149651 
	C67.659187,25.504902 65.676323,27.690813 63.242294,29.710676 
	C58.840519,24.991684 54.889904,20.438736 50.998680,15.566163 
	C52.667225,13.822166 54.276375,12.397797 55.885525,10.973427 
z"/>
<path fill="#FBB123" opacity="1.000000" stroke="none" 
	d="
M22.331959,72.954582 
	C20.454046,70.208496 18.864840,67.427742 17.346046,64.609047 
	C16.042067,62.189030 14.818563,59.725643 13.455385,56.851952 
	C15.898872,55.295654 18.446445,54.168835 21.040146,53.415867 
	C22.724936,59.523911 24.363596,65.258102 26.002258,70.992294 
	C24.885248,71.629349 23.768234,72.266403 22.331959,72.954582 
z"/>
<path fill="#FD7816" opacity="1.000000" stroke="none" 
	d="
M29.920826,36.787964 
	C30.299763,36.308498 30.678701,35.829037 31.469727,35.586586 
	C36.030113,40.262539 40.178413,44.701481 44.326714,49.140419 
	C45.027351,49.434540 45.727985,49.728661 46.703773,50.522621 
	C46.320232,56.992538 45.661530,62.962616 45.002831,68.932693 
	C44.247414,68.923416 43.491993,68.914139 42.370346,68.350647 
	C42.002552,63.157806 41.846069,58.512257 42.053543,53.883015 
	C42.193432,50.761772 40.945057,49.628399 37.997513,50.002476 
	C37.999557,50.000122 38.001221,49.996796 38.000355,49.615158 
	C37.077518,47.400192 36.323269,45.455067 35.193481,43.760277 
	C33.580109,41.340061 31.691744,39.103157 29.920826,36.787964 
z"/>
<path fill="#FBAA20" opacity="1.000000" stroke="none" 
	d="
M50.939285,15.885790 
	C54.889904,20.438736 58.840519,24.991684 62.936554,29.859322 
	C61.609638,31.752968 60.137299,33.331921 58.320240,34.692318 
	C53.966167,29.946926 49.956814,25.420088 46.083691,20.628334 
	C46.810371,19.561951 47.400822,18.760485 48.266754,17.836254 
	C49.341255,17.104256 50.140270,16.495024 50.939285,15.885790 
z"/>
<path fill="#FE570D" opacity="1.000000" stroke="none" 
	d="
M63.875046,55.489037 
	C61.751396,61.269596 59.409950,66.784821 57.027283,72.669464 
	C55.044296,72.256767 53.102531,71.474648 51.243111,70.233398 
	C53.232182,64.128235 55.138908,58.482204 57.045631,52.836178 
	C59.249504,53.632019 61.453377,54.427864 63.875046,55.489037 
z"/>
<path fill="#FBA01E" opacity="1.000000" stroke="none" 
	d="
M45.947460,20.893251 
	C49.956814,25.420088 53.966167,29.946926 58.021645,34.831482 
	C56.931252,36.437241 55.794735,37.685287 54.319557,38.712261 
	C49.975758,33.972179 45.970619,29.453173 42.093239,24.660568 
	C42.494541,23.639349 42.768085,22.891727 43.352669,22.075218 
	C44.424961,21.635305 45.186211,21.264278 45.947460,20.893251 
z"/>
<path fill="#FC8B19" opacity="1.000000" stroke="none" 
	d="
M33.782650,32.899567 
	C34.174667,32.175159 34.566681,31.450752 34.991528,30.338879 
	C35.024361,29.951410 35.137726,29.817553 35.440887,29.868345 
	C36.153378,29.943632 36.562702,29.968128 37.326160,30.027958 
	C39.698921,31.454439 41.812466,32.728119 43.713829,34.264397 
	C46.532543,36.541882 49.200855,39.005508 51.933193,41.389893 
	C50.726303,42.647861 49.519409,43.905830 47.649849,45.089096 
	C42.585667,40.976116 38.184158,36.937840 33.782650,32.899567 
z"/>
<path fill="#FC8F19" opacity="1.000000" stroke="none" 
	d="
M38.007034,68.580597 
	C36.942623,68.720329 35.878212,68.860062 34.397449,68.545731 
	C32.980976,62.078415 31.980852,56.065155 31.314438,50.028759 
	C32.093437,49.993118 32.538731,49.980618 33.402416,49.978783 
	C35.214283,49.991901 36.607750,49.994347 38.001221,49.996796 
	C38.001221,49.996796 37.999557,50.000122 37.998951,50.469997 
	C38.001244,56.820118 38.004139,62.700359 38.007034,68.580597 
z"/>
<path fill="#FC951B" opacity="1.000000" stroke="none" 
	d="
M52.163132,41.273537 
	C49.200855,39.005508 46.532543,36.541882 43.713829,34.264397 
	C41.812466,32.728119 39.698921,31.454439 37.367996,29.691860 
	C38.362206,27.876358 39.668701,26.432283 41.222897,24.976961 
	C41.470592,24.965714 41.965485,24.934166 41.965485,24.934166 
	C45.970619,29.453173 49.975758,33.972179 54.028748,38.850117 
	C53.515427,39.858425 52.954250,40.507805 52.163132,41.273537 
z"/>
<path fill="#FBA620" opacity="1.000000" stroke="none" 
	d="
M26.368023,70.986198 
	C24.363596,65.258102 22.724936,59.523911 21.347363,53.254272 
	C22.708628,52.462513 23.808800,52.206196 25.279861,52.024525 
	C26.436815,53.945148 27.355627,55.747395 27.981150,57.646255 
	C29.260473,61.529823 30.382183,65.465309 31.568802,69.379417 
	C29.957130,69.912979 28.345459,70.446541 26.368023,70.986198 
z"/>
<path fill="#FE620E" opacity="1.000000" stroke="none" 
	d="
M56.820778,52.583515 
	C55.138908,58.482204 53.232182,64.128235 51.003418,69.976959 
	C49.892075,70.078346 49.102772,69.977028 48.132812,69.296890 
	C49.304199,62.882046 50.656239,57.046028 52.008278,51.210014 
	C53.537498,51.583626 55.066711,51.957237 56.820778,52.583515 
z"/>
<path fill="#FC9B20" opacity="1.000000" stroke="none" 
	d="
M31.880507,69.382042 
	C30.382183,65.465309 29.260473,61.529823 27.981150,57.646255 
	C27.355627,55.747395 26.436815,53.945148 25.309031,51.792336 
	C24.967310,51.485504 25.009523,51.018509 25.392624,51.013283 
	C27.510725,50.689335 29.245728,50.370617 30.980730,50.051895 
	C31.980852,56.065155 32.980976,62.078415 33.993649,68.504601 
	C33.401535,69.073235 32.796871,69.228951 31.880507,69.382042 
z"/>
<path fill="#FD8115" opacity="1.000000" stroke="none" 
	d="
M33.534500,32.992481 
	C38.184158,36.937840 42.585667,40.976116 47.344116,45.195412 
	C46.764469,46.520386 45.827877,47.664341 44.609001,48.974361 
	C40.178413,44.701481 36.030113,40.262539 31.743006,35.438454 
	C32.164917,34.397339 32.725632,33.741367 33.534500,32.992481 
z"/>
<path fill="#FD6E13" opacity="1.000000" stroke="none" 
	d="
M51.662899,51.081688 
	C50.656239,57.046028 49.304199,62.882046 47.869255,69.153473 
	C47.082512,69.454842 46.378674,69.320793 45.338833,69.059723 
	C45.661530,62.962616 46.320232,56.992538 46.992477,50.619797 
	C48.443188,50.462543 49.880352,50.707951 51.662899,51.081688 
z"/>
<path fill="#FD8115" opacity="1.000000" stroke="none" 
	d="
M38.403137,68.649796 
	C38.004139,62.700359 38.001244,56.820118 37.996910,50.472351 
	C40.945057,49.628399 42.193432,50.761772 42.053543,53.883015 
	C41.846069,58.512257 42.002552,63.157806 42.006050,68.244156 
	C40.938404,68.700928 39.868824,68.709961 38.403137,68.649796 
z"/>
<path fill="#FBAD24" opacity="1.000000" stroke="none" 
	d="
M11.280292,21.993155 
	C13.222416,15.931086 15.426822,10.092876 17.944302,4.049444 
	C20.160175,4.972389 22.062975,6.100557 23.832510,7.669734 
	C21.466799,13.735280 19.234352,19.359819 17.001907,24.984358 
	C15.182129,24.061911 13.362350,23.139462 11.280292,21.993155 
z"/>
<path fill="#FBA11F" opacity="1.000000" stroke="none" 
	d="
M17.241806,25.199150 
	C19.234352,19.359819 21.466799,13.735280 24.044655,7.932899 
	C25.130936,8.016809 25.871809,8.278561 26.658714,9.101759 
	C24.806581,15.382727 22.908417,21.102247 21.010250,26.821768 
	C19.834070,26.352493 18.657888,25.883219 17.241806,25.199150 
z"/>
<path fill="#FD8A19" opacity="1.000000" stroke="none" 
	d="
M30.001446,10.023921 
	C30.785330,10.352412 31.569218,10.680903 32.675949,11.480043 
	C32.334209,17.887968 31.669630,23.825247 31.005051,29.762524 
	C29.471426,29.449608 27.937798,29.136692 26.170879,28.199287 
	C27.292206,21.724508 28.646826,15.874214 30.001446,10.023921 
z"/>
<path fill="#FC971D" opacity="1.000000" stroke="none" 
	d="
M29.738592,9.831972 
	C28.646826,15.874214 27.292206,21.724508 25.889114,28.013844 
	C24.436514,28.047619 23.032385,27.642349 21.319252,27.029423 
	C22.908417,21.102247 24.806581,15.382727 26.853954,9.327769 
	C27.827353,9.208229 28.651546,9.424127 29.738592,9.831972 
z"/>
<path fill="#FE5C0D" opacity="1.000000" stroke="none" 
	d="
M25.009521,51.018509 
	C25.009523,51.018509 24.967310,51.485504 24.938141,51.717690 
	C23.808800,52.206196 22.708628,52.462513 21.301235,52.880424 
	C18.446445,54.168835 15.898872,55.295654 13.140580,56.693394 
	C11.829364,57.316059 10.728867,57.667797 9.278429,57.989498 
	C12.684734,54.034584 16.440977,50.109711 20.865826,46.104359 
	C22.692795,47.688759 23.851158,49.353634 25.009521,51.018509 
z"/>
<path fill="#FD7D17" opacity="1.000000" stroke="none" 
	d="
M31.387114,29.866686 
	C31.669630,23.825247 32.334209,17.887968 33.002373,11.533817 
	C33.761002,11.073607 34.516052,11.030272 35.638199,11.528326 
	C35.716106,17.985662 35.426918,23.901608 35.137726,29.817553 
	C35.137726,29.817553 35.024361,29.951410 34.977425,30.025476 
	C33.876717,30.056644 32.822948,30.013746 31.387114,29.866686 
z"/>
<path fill="#FE680F" opacity="1.000000" stroke="none" 
	d="
M25.392622,51.013283 
	C23.851158,49.353634 22.692795,47.688759 21.166897,45.971264 
	C22.537914,44.073093 24.276468,42.227535 26.452541,40.593716 
	C28.921379,43.859673 30.952700,46.913895 32.984020,49.968117 
	C32.538731,49.980618 32.093437,49.993118 31.314438,50.028763 
	C29.245728,50.370617 27.510725,50.689335 25.392622,51.013283 
z"/>
<path fill="#FD7512" opacity="1.000000" stroke="none" 
	d="
M33.402416,49.978783 
	C30.952700,46.913895 28.921379,43.859673 26.757668,40.416565 
	C27.537899,39.025997 28.450520,38.024311 29.641983,36.905296 
	C31.691744,39.103157 33.580109,41.340061 35.193481,43.760277 
	C36.323269,45.455067 37.077518,47.400192 38.000355,49.615158 
	C36.607750,49.994347 35.214283,49.991901 33.402416,49.978783 
z"/>
<path fill="#FE5C0D" opacity="1.000000" stroke="none" 
	d="
M8.695912,57.963284 
	C8.771297,58.226299 8.556806,58.524216 8.057065,58.881561 
	C7.983222,58.626724 8.194630,58.312454 8.695912,57.963284 
z"/>
<path fill="#FD7111" opacity="1.000000" stroke="none" 
	d="
M35.440887,29.868345 
	C35.426918,23.901608 35.716106,17.985662 36.007812,11.624403 
	C36.767406,11.172259 37.524483,11.165431 38.643700,11.715745 
	C39.003956,15.071230 38.782848,17.893776 39.088036,20.658218 
	C39.253029,22.152781 40.316860,23.548111 40.975201,24.988209 
	C39.668701,26.432283 38.362206,27.876358 37.013870,29.656528 
	C36.562702,29.968128 36.153378,29.943632 35.440887,29.868345 
z"/>
<path fill="#FE670F" opacity="1.000000" stroke="none" 
	d="
M41.222897,24.976961 
	C40.316860,23.548111 39.253029,22.152781 39.088036,20.658218 
	C38.782848,17.893776 39.003956,15.071230 39.004955,11.835427 
	C40.071468,11.320106 41.138866,11.242243 42.605572,11.644978 
	C43.017128,15.465086 43.029381,18.804596 43.041630,22.144106 
	C42.768085,22.891727 42.494541,23.639349 42.093239,24.660568 
	C41.965485,24.934166 41.470592,24.965714 41.222897,24.976961 
z"/>
<path fill="#FE5417" opacity="1.000000" stroke="none" 
	d="
M50.998680,15.566164 
	C50.140270,16.495024 49.341255,17.104256 48.263512,17.447468 
	C47.656059,15.136840 47.327335,13.092232 46.998615,11.047624 
	C50.412247,9.703648 53.825874,8.359672 57.605278,6.975153 
	C57.386864,8.083624 56.802677,9.232636 56.052010,10.677537 
	C54.276375,12.397797 52.667225,13.822166 50.998680,15.566164 
z"/>
<path fill="#FE5A0C" opacity="1.000000" stroke="none" 
	d="
M46.599442,10.994802 
	C47.327335,13.092232 47.656059,15.136840 47.988026,17.570232 
	C47.400822,18.760485 46.810371,19.561951 46.083691,20.628334 
	C45.186211,21.264278 44.424961,21.635305 43.352669,22.075218 
	C43.029381,18.804596 43.017128,15.465086 43.005928,11.682102 
	C44.071411,11.139746 45.135838,11.040862 46.599442,10.994802 
z"/>
<path fill="#FE5417" opacity="1.000000" stroke="none" 
	d="
M59.614632,5.816053 
	C59.471977,6.159334 59.033779,6.577101 58.267963,6.986567 
	C58.399929,6.615692 58.859509,6.253115 59.614632,5.816053 
z"/>
</svg>